<svg width="324" height="72" viewBox="0 0 324 72" fill="none" xmlns="http://www.w3.org/2000/svg">
<path d="M15.0898 21.0475C22.2744 20.906 28.2133 26.6154 28.3549 33.8C28.3578 33.947 28.3582 34.094 28.3561 34.2409C28.3459 34.8865 28.2996 35.531 28.2177 36.1715C28.137 36.8565 27.5596 37.3746 26.8699 37.3808H8.708C9.01969 40.9004 11.9865 43.588 15.5196 43.5514C17.5011 43.5308 19.4305 42.9139 21.0564 41.7811C21.7849 41.3585 22.4041 41.2128 22.8995 41.7811L25.8136 45.1177C26.3067 45.5377 26.366 46.278 25.946 46.7711C25.8854 46.8423 25.8165 46.906 25.7407 46.9608C22.8412 49.5574 19.061 50.9512 15.1699 50.8584C6.66087 50.8584 0.599609 44.1196 0.599609 35.9602C0.621465 27.932 6.65358 21.0475 15.0898 21.0475ZM20.0219 32.3978C19.7804 29.7032 17.547 27.6238 14.8421 27.575C12.0538 27.5778 9.69437 29.6358 9.31267 32.3978H20.0219Z" fill="#1D1D1B"/>
<path d="M51.5519 48.0756L60.7749 35.6908L51.836 23.7869C51.3811 23.2761 51.4263 22.4932 51.9371 22.0383C52.1999 21.8042 52.5499 21.693 52.8997 21.7324H58.7861C59.69 21.5957 60.5941 21.9787 61.1246 22.7232L65.7361 29.3891H65.809L70.4934 22.7232C70.9583 22.0176 71.7813 21.6343 72.6206 21.7324H79.0316C80.2336 21.7324 80.5906 22.8689 79.8839 23.7869L70.9159 35.5888L79.9276 48.0756C80.5687 49.0008 80.2118 50.13 79.0753 50.13H72.8319C72.0122 50.1389 71.2516 49.7043 70.843 48.9935L65.809 41.8978H65.7361L60.3451 49.5618C60.051 49.887 59.6453 50.0898 59.2086 50.13H52.4043C51.1949 50.13 50.9108 49.0008 51.5519 48.0756Z" fill="#1D1D1B"/>
<path d="M114.685 70.0707C114.685 70.9231 114.262 71.4185 112.98 71.4185H107.305C106.572 71.3922 105.983 70.8039 105.957 70.0707V23.1032C105.957 22.3589 106.56 21.7555 107.305 21.7555H110.073C110.614 21.7558 111.096 22.0975 111.275 22.6079L112.2 24.9464C113.264 23.5258 116.739 21.0488 121.351 21.0488C129.153 21.0488 135.039 27.7876 135.039 35.947C135.039 44.3176 128.658 50.8451 120.994 50.8451C118.798 50.8218 116.638 50.2881 114.685 49.2861V70.0707ZM119.828 43.1812C123.798 43.1812 126.712 39.9174 126.712 35.947C126.712 31.9766 124.017 28.7128 120.112 28.7128C117.429 28.7159 115.063 30.4726 114.284 33.0402V41.5493C115.908 42.6764 117.852 43.2488 119.828 43.1812Z" fill="#1D1D1B"/>
<path d="M161.857 1.82237C161.884 1.08918 162.472 0.50089 163.205 0.474609H169.164C169.898 0.500884 170.486 1.08918 170.512 1.82237V48.7825C170.486 49.5157 169.898 50.104 169.164 50.1303H163.205C162.47 50.1076 161.88 49.5173 161.857 48.7825V1.82237Z" fill="#1D1D1B"/>
<path d="M211.789 21.0488C219.803 21.0488 226.359 27.8605 226.359 35.8741C226.359 44.0335 219.803 50.8452 211.789 50.8452C203.775 50.8452 197.219 44.0335 197.219 35.8741C197.248 27.8605 203.775 21.0488 211.789 21.0488ZM211.789 43.1812C215.548 43.1812 218.601 39.9174 218.601 35.896C218.775 32.134 215.866 28.9433 212.104 28.7693C208.342 28.5954 205.151 31.504 204.977 35.266C204.968 35.4759 204.968 35.6861 204.977 35.896C204.985 39.9174 207.979 43.1812 211.789 43.1812Z" fill="#1D1D1B"/>
<path d="M253.008 23.1029C253.008 22.3585 253.611 21.7551 254.356 21.7551H257.051C257.634 21.7396 258.156 22.1152 258.326 22.673L259.317 25.4414C261.117 22.7664 264.107 21.1355 267.33 21.0703C270.667 21.0703 273.647 22.1339 272.794 23.9042L270.172 28.5158C269.887 29.1318 269.168 29.4144 268.54 29.1568C267.877 28.9234 267.186 28.7812 266.485 28.7343C264.403 28.7223 262.478 29.837 261.451 31.6484V48.7831C261.451 49.7739 260.81 50.1308 259.819 50.1308H254.356C253.622 50.1046 253.034 49.5163 253.008 48.7831V23.1029Z" fill="#1D1D1B"/>
<path d="M309.184 21.0475C316.368 20.906 322.307 26.6154 322.449 33.8C322.452 33.947 322.452 34.094 322.45 34.2409C322.44 34.8817 322.394 35.5214 322.312 36.1569C322.231 36.8419 321.654 37.36 320.964 37.3663H302.802C303.114 40.8859 306.081 43.5734 309.614 43.5368C311.593 43.5148 313.519 42.898 315.143 41.7665C315.872 41.344 316.491 41.1983 316.986 41.7665L319.9 45.1031C320.394 45.5231 320.453 46.2634 320.033 46.7566C319.972 46.8278 319.903 46.8914 319.828 46.9463C316.924 49.5463 313.138 50.9403 309.242 50.8438C300.733 50.8438 294.672 44.105 294.672 35.9457C294.716 27.932 300.748 21.0475 309.184 21.0475ZM314.152 32.3978C313.911 29.7032 311.678 27.6238 308.973 27.575C306.173 27.5632 303.797 29.6248 303.414 32.3978H314.152Z" fill="#1D1D1B"/>
<path d="M130.129 61.8159C130.145 61.6929 130.253 61.6032 130.377 61.6119H130.596C130.694 61.6076 130.785 61.662 130.829 61.7503L133.859 68.256H133.903L136.934 61.7503C136.975 61.6606 137.068 61.6056 137.167 61.6119H137.385C137.509 61.6032 137.618 61.6929 137.633 61.8159L139.258 71.0753C139.298 71.2017 139.229 71.3372 139.102 71.3778C139.073 71.3874 139.041 71.3911 139.01 71.3886H137.757C137.636 71.38 137.533 71.2995 137.495 71.1846L136.679 65.9612H136.635L134.224 71.374C134.188 71.471 134.093 71.5333 133.99 71.527H133.743C133.641 71.5288 133.549 71.4681 133.51 71.374L131.069 65.9612H131.025L130.224 71.1846C130.195 71.2997 130.095 71.3825 129.976 71.3886H128.738C128.597 71.3964 128.477 71.2887 128.469 71.1481C128.468 71.1237 128.47 71.0992 128.476 71.0753L130.129 61.8159Z" fill="#1D1D1B"/>
<path d="M144.759 71.0309L149.042 61.7569C149.081 61.6629 149.174 61.6022 149.276 61.6039H149.414C149.517 61.5977 149.612 61.66 149.647 61.7569L153.894 71.0309C153.959 71.1467 153.918 71.2933 153.802 71.3583C153.759 71.3824 153.71 71.3927 153.661 71.3879H152.459C152.278 71.3993 152.112 71.2849 152.058 71.1111L151.381 69.654H147.258L146.58 71.1111C146.52 71.2802 146.359 71.3919 146.179 71.3879H144.977C144.845 71.3925 144.733 71.2887 144.729 71.156C144.727 71.1124 144.738 71.0691 144.759 71.0309ZM150.711 68.1169L149.334 65.0863H149.29L147.942 68.1169L150.711 68.1169Z" fill="#1D1D1B"/>
<path d="M163.583 61.6035C164.821 61.6171 166.015 62.0717 166.948 62.8857C167.055 62.9896 167.057 63.1603 166.953 63.2669C166.952 63.2685 166.95 63.2702 166.948 63.2718L166.096 64.1679C166.013 64.2665 165.866 64.2792 165.768 64.1964C165.757 64.1878 165.748 64.1782 165.739 64.1679C165.167 63.6534 164.425 63.368 163.655 63.3665C161.901 63.3665 160.479 64.7886 160.479 66.5429C160.479 68.2971 161.901 69.7192 163.655 69.7192C164.219 69.7134 164.776 69.5971 165.295 69.3768V68.2257H164.195C164.058 68.2338 163.941 68.1296 163.933 67.993C163.932 67.988 163.932 67.983 163.932 67.978V66.8853C163.928 66.7445 164.039 66.6271 164.18 66.623C164.185 66.6228 164.19 66.6228 164.195 66.623H166.839C166.978 66.6307 167.087 66.7459 167.087 66.8853V70.4113C167.087 70.4974 167.047 70.5786 166.977 70.6298C165.935 71.2175 164.758 71.5261 163.561 71.5259C160.825 71.5245 158.608 69.3054 158.609 66.5695C158.611 63.8355 160.827 61.6195 163.561 61.6181L163.583 61.6035Z" fill="#1D1D1B"/>
<path d="M172.572 71.0309L176.856 61.7569C176.895 61.6629 176.987 61.6022 177.089 61.6039H177.228C177.331 61.5977 177.425 61.66 177.461 61.7569L181.708 71.0309C181.773 71.1467 181.732 71.2933 181.616 71.3583C181.573 71.3824 181.524 71.3927 181.475 71.3879H180.295C180.113 71.3993 179.947 71.2849 179.894 71.1111L179.216 69.654H175.093L174.415 71.1111C174.356 71.2802 174.194 71.3919 174.015 71.3879H172.813C172.681 71.4052 172.56 71.3125 172.543 71.1809C172.536 71.129 172.547 71.0764 172.572 71.0309ZM178.524 68.1169L177.147 65.0863H177.104L175.756 68.1169L178.524 68.1169Z" fill="#1D1D1B"/>
<path d="M187.019 70.8792L191.128 63.4629V63.4046H187.682C187.539 63.4008 187.424 63.2856 187.42 63.1424V61.9986C187.424 61.8554 187.539 61.7402 187.682 61.7363H193.408C193.551 61.7402 193.667 61.8554 193.67 61.9986V62.1807L189.649 69.6844H193.16C193.305 69.6845 193.423 69.8019 193.423 69.9467V71.1415C193.423 71.2863 193.305 71.4037 193.16 71.4038H187.274C187.131 71.3999 187.016 71.2847 187.012 71.1415L187.019 70.8792Z" fill="#1D1D1B"/>
<path d="M199.783 62.0045C199.787 61.8612 199.902 61.746 200.045 61.7422H201.328C201.471 61.746 201.586 61.8612 201.59 62.0045V71.1401C201.586 71.2833 201.471 71.3985 201.328 71.4023H200.045C199.902 71.3985 199.787 71.2833 199.783 71.1401V62.0045Z" fill="#1D1D1B"/>
<path d="M208.57 61.8512C208.578 61.7121 208.693 61.6033 208.832 61.6035H209.174L214.908 67.6939V61.9969C214.908 61.8521 215.025 61.7347 215.17 61.7347H216.438C216.581 61.7385 216.696 61.8537 216.7 61.9969V71.2709C216.692 71.4101 216.577 71.5188 216.438 71.5186H216.103L210.34 65.1951V71.1398C210.34 71.2846 210.223 71.4021 210.078 71.4021H208.825C208.682 71.3982 208.566 71.283 208.562 71.1398L208.57 61.8512Z" fill="#1D1D1B"/>
<path d="M223.701 62.0045C223.701 61.8596 223.818 61.7422 223.963 61.7422H229.573C229.718 61.7422 229.835 61.8596 229.835 62.0045V63.1264C229.835 63.2712 229.718 63.3886 229.573 63.3886H225.464V65.647H228.866C229.009 65.6509 229.125 65.7661 229.128 65.9093V67.0531C229.128 67.1979 229.011 67.3153 228.866 67.3153H225.464V69.7267H229.544C229.689 69.7267 229.806 69.8442 229.806 69.989V71.1401C229.806 71.2849 229.689 71.4023 229.544 71.4023H223.934C223.789 71.4023 223.672 71.2849 223.672 71.1401L223.701 62.0045Z" fill="#1D1D1B"/>
</svg>
