<svg width="171" height="48" viewBox="0 0 171 48" fill="none" xmlns="http://www.w3.org/2000/svg">
<g clip-path="url(#clip0)">
<path d="M49.9829 13.269C49.1303 18.89 49.6293 24.6248 47.9872 30.2522C47.0966 33.2964 45.5998 34.2943 43.0356 33.8269C38.5261 33.0058 34.004 32.1785 31.364 27.5111C29.1408 23.5827 30.3914 17.0395 33.9661 14.9679C36.1261 13.7174 37.6419 14.8227 39.3661 15.6627C39.8272 15.89 40.5282 16.269 40.7935 16.0922C41.2798 15.77 40.7935 15.1385 40.7493 14.6269C40.4271 11.1595 38.5261 8.37426 36.8461 5.50057C36.5177 4.94478 36.0124 4.47742 35.7535 3.89636C35.2166 2.70268 34.5598 1.09215 35.7472 0.315311C37.1303 -0.587847 37.5914 1.25636 38.2356 2.09005C40.4714 4.989 42.7008 7.90689 43.6987 11.5322C43.7935 11.8858 44.0019 12.2079 44.1598 12.5427C44.1472 12.1132 44.185 11.6774 44.1093 11.2543C43.705 9.02478 43.1303 6.86478 41.9556 4.88163C41.444 4.01636 40.4714 2.79742 41.7282 2.02057C43.2124 1.1111 43.6482 2.83531 44.2545 3.65636C46.0482 6.07531 46.2061 9.07531 46.9261 11.8669C47.0208 12.2395 47.2672 12.5806 47.444 12.9343C47.545 12.5364 47.7472 12.1322 47.7219 11.7406C47.6587 10.6669 47.4882 9.59952 47.3745 8.52584C47.2987 7.83742 46.6735 6.89005 47.6777 6.56794C48.884 6.18268 49.0293 7.41426 49.2629 8.1532C49.7935 9.80163 50.2229 11.4879 49.9829 13.269ZM38.7345 26.6837C40.3072 26.7595 41.1661 26.09 41.1724 24.429C41.1787 21.7448 38.5766 19.0922 35.8861 18.8079C33.3535 18.5427 33.2272 20.9932 32.3303 22.1806C31.6103 23.1343 36.5556 26.6522 38.7345 26.6837Z" fill="#0F0F0F"/>
<path d="M122.16 24.7132C122.987 18.0185 123.896 10.528 124.863 3.04376C124.964 2.25429 125.071 1.16166 126.101 1.04797C127.01 0.946919 127.635 1.72376 128.128 2.45008C128.981 3.7006 128.861 5.13429 128.747 6.51745C128.532 9.20797 128.166 11.8796 127.951 14.5701C127.882 15.4796 127.358 16.6859 128.235 17.2606C128.968 17.7343 129.783 16.7806 130.528 16.4206C133.724 14.8606 136.932 13.3069 140.059 11.608C141.454 10.8501 142.433 10.7869 143.216 12.3027C143.949 13.7238 144.031 15.0185 142.414 15.8711C139.553 17.3806 136.648 18.808 133.819 20.368C133.118 20.7532 132.012 20.9111 131.981 21.9027C131.974 22.1174 133.275 22.4269 133.995 22.6101C135.562 23.008 137.153 23.3111 138.707 23.7406C140.381 24.2017 142.433 24.7069 142.111 26.8922C141.795 29.0459 139.623 28.6922 138.139 28.5343C134.829 28.1743 131.469 27.9848 128.324 26.7027C127.585 26.3996 126.6 25.7932 126.499 27.3785C126.41 28.6859 126.454 30.2143 124.503 29.9111C122.633 29.6206 121.863 28.3701 122.153 26.4817C122.204 26.1722 122.16 25.8438 122.16 24.7132Z" fill="#0F0F0F"/>
<path d="M53.2974 21.6949C52.5585 15.9602 57.2006 14.0023 62.8406 14.3054C67.2806 14.5454 71.3795 18.7707 70.9943 22.6486C70.6153 26.476 64.6406 30.6823 59.9353 30.297C56.0511 29.9749 52.369 27.7139 53.2974 21.6949ZM60.049 25.0991C62.2532 24.8023 64.0658 24.1139 65.7901 23.2549C66.5985 22.8507 67.6785 22.3139 67.4385 21.1391C67.2364 20.1728 66.5037 19.4402 65.5248 19.0928C63.3901 18.3349 61.1858 18.5686 59.1901 19.3202C57.4532 19.977 57.1058 22.0991 57.0995 23.5581C57.0995 24.6633 59.0195 24.9602 60.049 25.0991Z" fill="#0F0F0F"/>
<path d="M77.3733 28.6289C77.1586 25.6352 76.7986 23.0521 77.1775 20.4689C77.2975 19.6352 77.4933 18.6563 78.567 18.5552C79.5081 18.4668 79.7102 19.3131 80.0386 20.0079C80.7775 21.5868 81.2639 23.1531 81.2765 24.9531C81.327 31.5342 81.2512 38.0773 79.5649 44.5068C78.807 47.3868 77.2597 48.0121 74.5628 46.9384C71.1586 45.5742 69.2133 43.0921 68.386 39.631C68.2723 39.1636 68.2849 38.3678 68.5565 38.1784C69.0428 37.8436 69.4723 38.4563 69.9018 38.7657C75.6112 42.8647 76.0407 42.6815 76.8365 35.6268C77.1144 33.17 77.2218 30.6879 77.3733 28.6289Z" fill="#0F0F0F"/>
<path d="M165.813 30.9407C163.476 30.6755 160.615 30.1702 157.893 29.1533C155.784 28.3639 154.097 26.8607 153.674 24.6123C153.226 22.2186 154.824 20.5512 156.541 19.187C159.946 16.4965 166.274 16.1807 168.876 18.5428C169.899 19.4712 170.973 20.4628 170.695 22.0923C170.405 23.766 169.078 24.2965 167.695 24.606C165.605 25.0797 163.483 25.4144 161.379 25.8186C160.994 25.8944 160.628 26.046 160.255 26.1597C160.552 26.4502 160.798 26.8986 161.146 27.0123C163.4 27.7323 165.687 28.3449 167.929 29.0839C168.554 29.2923 169.779 28.8186 169.716 29.8986C169.659 30.9849 168.453 30.8018 167.651 30.9281C167.234 30.9912 166.798 30.9407 165.813 30.9407ZM162.049 22.6797C163.628 22.5344 165.232 23.046 166.325 21.6691C166.489 21.467 166.337 20.7028 166.097 20.5449C164.809 19.6923 163.451 20.2039 162.118 20.507C161 20.7597 159.207 20.8355 159.346 22.067C159.529 23.7344 161.253 22.1934 162.049 22.6797Z" fill="#0F0F0F"/>
<path d="M21.6869 24.8202C21.4279 23.8412 22.7226 22.1044 21.4974 21.4665C20.1711 20.7781 19.129 22.496 18.0174 23.2539C16.4763 24.296 15.169 25.597 14.2658 27.2202C13.6279 28.3696 12.75 28.7486 11.5942 28.3318C10.4637 27.9275 9.83211 27.0054 10.0216 25.7991C10.3626 23.5633 10.8047 21.3465 11.2468 19.1233C11.3921 18.3844 11.6132 17.6012 12.5163 17.4307C13.489 17.2475 14.0195 18.0496 14.1584 18.6875C14.7016 21.2075 15.9269 20.197 16.9942 19.2623C18.2953 18.1191 19.5837 17.0139 21.0995 16.1296C23.1269 14.9423 24.4342 15.656 25.249 17.5381C27.0616 21.7444 25.8679 26.0454 25.4384 30.3149C25.3626 31.0665 24.7626 31.3696 24.0237 31.3254C23.2216 31.2812 22.6216 31.0096 22.2553 30.1823C21.51 28.5212 21.7374 26.7907 21.6869 24.8202Z" fill="#0F0F0F"/>
<path d="M118.636 24.0127C118.491 25.5159 118.428 27.0316 118.181 28.5159C118.03 29.419 117.929 30.6316 116.659 30.6695C115.282 30.7074 114.594 29.7916 114.291 28.478C113.868 26.6274 114.442 24.8337 114.423 23.0085C114.417 22.4211 114.777 21.6443 114.025 21.2906C113.343 20.9748 112.705 21.499 112.308 21.9095C110.444 23.8422 108.575 25.7811 106.895 27.8716C106.055 28.9137 105.316 29.5895 103.945 29.1095C102.644 28.6485 102.518 27.5685 102.651 26.4632C102.935 24.0127 103.263 21.5685 103.686 19.1369C103.806 18.4358 104.122 17.5327 104.937 17.3874C105.783 17.2358 106.339 18.0127 106.592 18.6948C107.331 20.7222 108.322 20.4822 109.541 19.1748C109.686 19.0169 109.832 18.8527 110.002 18.7264C111.846 17.3495 113.552 14.8043 116.053 15.9095C118.712 17.0906 118.566 20.1285 118.63 22.7243C118.649 23.1474 118.642 23.5769 118.636 24.0127Z" fill="#0F0F0F"/>
<path d="M100.218 20.0394C100.085 24.7383 97.1232 28.7425 92.9926 30.0625C90.8768 30.7383 89.1147 30.271 87.7442 28.7046C86.0579 26.772 84.3653 24.751 85.0411 21.8394C85.2179 21.0625 85.5337 20.3236 86.4053 20.2541C87.4537 20.172 87.959 21.0689 88.1863 21.8457C88.6916 23.551 89.1147 25.5152 91.3442 25.1678C93.5168 24.8267 95.3168 23.5446 95.9421 21.1699C96.1063 20.5446 96.1505 19.8562 96.4474 19.3067C97.0221 18.2457 96.8389 16.1867 98.4368 16.3889C100.218 16.6225 100.249 18.492 100.218 20.0394Z" fill="#0F0F0F"/>
<path d="M1.41406 24.7005C1.91933 18.3342 2.87933 12.8268 4.54669 7.46474C4.80564 6.63106 4.96985 5.2479 6.29617 5.62685C7.34459 5.93001 6.85196 7.13001 6.80775 7.90685C6.40985 14.8984 5.9488 21.8837 5.49406 28.869C5.46248 29.4058 5.44985 29.9679 5.27301 30.4669C4.98248 31.2563 4.66669 32.2163 3.6309 32.1974C2.75933 32.1784 2.50669 31.3447 2.2288 30.6184C1.41406 28.4458 1.43301 26.1911 1.41406 24.7005Z" fill="#0F0F0F"/>
<path d="M150.026 24.556C149.981 25.175 150.007 25.396 149.95 25.5981C149.546 26.9434 151.042 29.2802 148.484 29.4697C145.826 29.6655 146.211 27.0444 145.788 25.4592C145.503 24.3855 145.775 23.1034 146.015 21.9602C146.236 20.9055 146.059 19.2128 147.701 19.3518C149.04 19.4592 149.874 20.6655 150.013 22.0739C150.101 23.0213 150.026 23.9939 150.026 24.556Z" fill="#0F0F0F"/>
<path d="M75.2773 12.5436C75.5363 11.8236 74.8605 10.4151 76.1994 10.5983C77.7721 10.813 78.3089 12.3351 78.4668 13.7562C78.5679 14.6404 78.1194 15.5499 77.0079 15.4551C75.1573 15.2973 75.4163 13.7688 75.2773 12.5436Z" fill="#0F0F0F"/>
<path d="M148.585 10.2383C149.905 10.5667 150.651 11.5141 150.828 12.872C150.935 13.6741 150.619 14.4004 149.634 14.3562C148.295 14.293 147.417 13.6172 147.404 12.1962C147.398 11.3878 147.272 10.4151 148.585 10.2383Z" fill="#0F0F0F"/>
</g>
<defs>
<clipPath id="clip0">
<rect width="169.895" height="48" fill="white" transform="translate(0.947266)"/>
</clipPath>
</defs>
</svg>
