<svg width="294" height="48" viewBox="0 0 294 48" fill="none" xmlns="http://www.w3.org/2000/svg">
<path fill-rule="evenodd" clip-rule="evenodd" d="M85.3092 10.2578C86.371 11.4629 88.69 11.4108 90.071 12.2967C88.208 12.7722 85.8629 12.7722 84.1758 13.4301C84.5666 12.3879 84.9249 11.3066 85.3092 10.2578Z" fill="black"/>
<path fill-rule="evenodd" clip-rule="evenodd" d="M72.1574 14.4473C71.5972 16.9877 70.4311 19.8995 69.7797 22.7201C73.382 22.7722 77.1797 22.0361 80.8862 21.8146C81.3877 21.1437 81.6353 20.2187 81.9089 19.3198C82.6515 20.3685 83.1726 22.3358 82.4756 23.8535C76.8475 23.7754 72.8022 28.3808 67.2849 28.3873C64.816 28.3873 62.712 26.9672 63.8845 24.1923C65.5326 20.2838 69.6364 17.5479 72.1574 14.4473Z" fill="black"/>
<path fill-rule="evenodd" clip-rule="evenodd" d="M128.836 6.17421C128.972 6.72138 128.367 7.24899 128.047 7.64635C125.377 11.0011 122.419 14.9616 118.869 17.5086C119.123 18.844 118.986 20.6093 118.524 21.5864C119.455 22.7785 120.439 23.9054 121.019 25.4427C120.263 29.4618 118.504 32.5821 115.69 34.6275C112.948 36.6143 109.235 37.3959 105.033 38.3665C96.9037 40.2426 83.5239 42.0926 77.4854 37.2332C70.9518 41.0634 57.7479 41.5714 51.6442 37.0051C47.2994 42.5029 30.1675 42.021 32.7144 31.11C29.5356 33.5136 24.839 36.8292 20.3573 38.7053C15.1591 40.8745 5.3164 40.6335 6.30002 33.2661C6.41727 32.3867 6.78857 31.8916 7.20547 31.11C5.6877 28.4587 4.72362 26.6153 3.80514 24.3093C2.92575 22.0945 1.57735 19.5801 1.42101 16.4859C1.09531 9.91974 6.21534 5.75079 11.2898 3.79658C13.8759 2.79342 15.9799 1.35382 18.5464 0.624248C22.3767 -0.463595 25.6597 1.64044 25.9138 5.15802C30.3629 3.83567 35.7826 2.37652 41.6647 3.22986C46.3483 -0.411484 55.494 1.83586 61.5 3.56859C62.8614 3.95943 64.6853 4.97562 65.695 4.93003C66.5483 4.89745 68.0856 3.73796 68.9781 3.3406C73.1926 1.47107 78.71 -0.515707 84.7355 0.506995C85.8755 0.702417 86.9177 1.30171 88.1358 1.41245C88.9631 1.4841 89.9663 1.23005 90.8587 1.18446C104.949 0.500481 116.674 4.27862 128.836 6.17421ZM89.3865 5.71822C87.9469 5.8941 86.9242 7.46395 85.9862 7.98507C86.0513 7.97856 86.1165 7.96553 86.0969 7.86782C86.2728 7.09265 86.5985 6.48037 86.6637 5.60097C79.1204 2.94324 71.7791 6.82558 66.3725 9.79598C62.0536 12.1671 58.1973 14.9551 55.4875 17.7301C56.4646 16.0625 57.5003 14.4144 58.6598 12.8576C59.8324 11.2747 61.1417 9.84809 62.1774 8.43454C59.917 7.84177 57.6502 7.21642 55.3768 6.73441C52.1393 6.04393 47.6316 4.90397 44.9478 6.39568C44.1726 6.82558 43.5342 7.88736 42.7916 7.98507C42.1793 8.06324 41.1697 7.61377 40.4075 7.52909C37.639 7.22293 35.0921 7.47698 32.5842 7.98507C30.2391 8.45408 25.2819 9.28788 24.6501 11.4961C24.2462 12.9162 25.1517 14.2907 24.9888 15.6912C24.8325 17.0722 23.5101 18.8961 22.8327 19.997C22.0054 21.3454 21.1716 22.544 19.7711 23.1693C18.9242 18.9483 19.8427 15.1896 20.5658 11.6069C21.0087 9.39862 21.9077 7.13825 21.1325 4.917C18.9698 4.61735 17.1524 6.33054 15.0093 7.18385C10.9901 8.79282 6.50847 10.2585 5.94175 14.8899C5.62256 17.5021 6.59966 19.1566 7.30318 21.0131C8.80143 24.9932 10.6579 28.3675 12.8597 31.4421C12.2604 32.543 10.8468 32.8296 10.7035 34.3865C11.3419 35.2919 12.6773 35.4092 13.9931 35.4092C17.7973 35.4026 20.9175 33.4876 23.7381 31.8916C29.8874 28.4327 34.0238 23.1041 38.3621 18.0623C39.1243 17.1764 39.7496 16.1081 40.7462 15.5674C41.7233 20.0426 39.8278 22.4397 38.4794 26.1071C37.9582 27.5207 36.3232 31.9438 37.1179 34.0413C37.9908 36.3472 45.4559 36.445 47.4362 34.9532C48.4328 34.1976 48.8302 32.4974 49.3643 31.4357C50.0483 30.0742 50.6411 28.9016 51.1752 27.6965C51.2078 32.6602 54.8947 34.1194 58.8813 35.1747C67.3561 37.4155 75.909 33.4093 80.534 30.6409C79.9542 34.3213 81.3873 34.6862 84.273 35.2855C91.7511 36.8292 99.2748 35.0444 105.359 33.5852C110.935 32.2433 115.417 31.2924 116.244 25.7619C115.351 24.9933 113.124 25.0844 111.599 25.3124C107.105 25.9703 102.753 28.2438 96.7474 27.8073C95.653 27.7292 93.2884 27.3448 93.1191 26.6738C92.8585 25.6251 94.728 24.8956 96.2979 24.635C100.793 23.8729 107.3 24.6415 110.915 23.2736C112.655 22.6157 114.752 20.7265 114.544 18.629C114.407 17.2155 112.557 16.4729 110.805 16.3621C105.847 16.0494 102.297 18.9482 97.0926 17.9515C97.744 17.1308 97.8613 15.7759 98.6756 15.1179C102.48 15.0398 106.18 15.7954 109.782 15.5739C114.791 15.2613 117.618 13.1508 119.983 10.3627C120.237 10.0631 120.869 9.73735 120.66 9.22925C111.977 7.91342 100.115 4.4089 89.3865 5.71822Z" fill="black"/>
<path d="M137.383 0.675781H154.717C165.536 0.675781 173.047 7.60669 173.047 19.5339C173.047 31.5067 165.901 38.2357 154.241 38.2357H137.383V0.675781ZM153.349 29.1486C158.391 29.1486 161.908 25.8916 161.908 19.5339C161.908 13.3325 158.599 9.76283 153.349 9.76283H148.359V29.1486H153.349Z" fill="black"/>
<path d="M175.619 0.675781H185.547V8.18643H175.619V0.675781ZM175.619 11.4434H185.547V38.2292H175.619V11.4434Z" fill="black"/>
<path d="M188.543 38.7044H198.105C198.47 39.8053 199.734 40.9648 202.098 40.9648C205.303 40.9648 206.404 39.0757 206.404 36.2877V33.871H206.196C204.619 35.6558 202.522 36.9195 199.421 36.9195C193.33 36.9195 188.021 32.6659 188.021 24.2628C188.021 16.5958 192.379 10.6094 198.946 10.6094C202.73 10.6094 205.036 12.0815 206.56 14.394H206.717V11.4497H216.169V35.037C216.169 39.3428 214.592 42.6519 212.228 44.6517C209.759 46.7492 206.241 47.5961 202.248 47.5961C194.737 47.583 189.487 44.6387 188.543 38.7044ZM206.821 23.8394C206.821 20.4781 205.14 17.8009 202.248 17.8009C199.467 17.8009 197.675 20.2176 197.675 23.8394C197.675 27.4091 199.46 29.9821 202.248 29.9821C205.14 29.9886 206.821 27.357 206.821 23.8394Z" fill="black"/>
<path d="M219.738 0.675781H229.666V8.18643H219.738V0.675781ZM219.738 11.4434H229.666V38.2292H219.738V11.4434Z" fill="black"/>
<path d="M231.822 11.4449H235.288V2.78125H245.007V11.4449H250.101V17.4313H245.007V28.3032C245.007 30.9805 246.896 31.0326 249.996 30.8242V38.1264C248.472 38.4912 246.896 38.7582 245.111 38.7582C238.597 38.7582 235.288 36.9213 235.288 30.5115V17.4313H231.822V11.4449Z" fill="black"/>
<path d="M269.116 35.2924H269.011C267.227 37.7612 264.386 38.9142 260.921 38.9142C255.775 38.9142 251.99 36.1327 251.99 30.8758C251.99 24.9416 256.563 23.2088 261.709 22.6291C267.383 21.9972 268.907 21.3132 268.907 19.6326C268.907 18.1605 268.223 17.0596 266.074 17.0596C263.917 17.0596 262.817 18.3233 262.556 20.2645H253.156C253.365 14.9621 257.462 10.5977 265.865 10.5977C269.962 10.5977 272.588 11.1253 274.64 12.3825C277.421 14.1152 278.789 16.8446 278.789 20.4208V33.8137C278.789 36.074 278.945 37.2791 279.786 37.8068V38.2302H270.015C269.637 37.6048 269.324 36.7645 269.116 35.2924ZM269.168 28.5178V26.1532C268.223 26.6287 267.012 27.0456 265.331 27.4104C262.445 28.0422 261.546 28.8825 261.546 30.4589C261.546 32.2438 263.018 33.032 264.647 33.032C266.959 33.032 269.168 31.7227 269.168 28.5178Z" fill="black"/>
<path d="M282.553 0.675781H292.741V38.2292H282.553V0.675781Z" fill="black"/>
</svg>
